<svg width="24.000000" height="21.818237" viewBox="0 0 24 21.8182" fill="none" xmlns="http://www.w3.org/2000/svg" xmlns:xlink="http://www.w3.org/1999/xlink">
	<desc>
			Created with Pixso.
	</desc>
	<defs>
		<clipPath id="clip1_4844">
			<rect id="gears-svgrepo-com 1" width="24.000000" height="21.818182" fill="white" fill-opacity="0"/>
		</clipPath>
	</defs>
	<g clip-path="url(#clip1_4844)">
		<path id="big-gear" d="M14.066 11.209L13.1247 10.3533C13.2274 10.1613 13.3173 9.96387 13.3942 9.76196L14.7253 9.76196C15.1628 9.76196 15.5175 9.43958 15.5175 9.04175L15.5175 6.93079C15.5175 6.53308 15.1628 6.21057 14.7253 6.21057L13.3941 6.21057C13.3172 6.00867 13.2273 5.8114 13.1247 5.61926L14.066 4.76355C14.3754 4.4823 14.3754 4.02637 14.066 3.74512L12.424 2.25244C12.1146 1.97119 11.6132 1.97119 11.3038 2.25244L10.3624 3.10815C10.1511 3.01489 9.93414 2.93298 9.71201 2.86316L9.71201 1.65295C9.71201 1.25537 9.35733 0.932861 8.91985 0.932861L6.59766 0.932861C6.16025 0.932861 5.8055 1.25525 5.8055 1.65295L5.8055 2.86316C5.58344 2.93311 5.36638 3.01477 5.15508 3.10815L4.21382 2.25244C4.06529 2.11731 3.86375 2.0415 3.65366 2.0415C3.44356 2.0415 3.2421 2.11731 3.09349 2.25244L1.4514 3.74512C1.30287 3.88013 1.21939 4.06335 1.21939 4.25439C1.21939 4.44531 1.30287 4.62854 1.4514 4.76355L2.39273 5.61938C2.2901 5.8114 2.20007 6.00867 2.12331 6.21069L0.79216 6.21069C0.35466 6.21069 0 6.53308 0 6.93079L0 9.04187C0 9.43958 0.35466 9.76208 0.79216 9.76208L2.12331 9.76208C2.20024 9.96387 2.2901 10.1613 2.39281 10.3534L1.45148 11.2091C1.14214 11.4902 1.14214 11.9463 1.45148 12.2275L3.09349 13.7202C3.40291 14.0013 3.90433 14.0015 4.21375 13.7202L5.15508 12.8645C5.3663 12.9579 5.58344 13.0397 5.8055 13.1095L5.8055 14.3197C5.8055 14.7173 6.16016 15.0398 6.59766 15.0398L8.91992 15.0398C9.35733 15.0398 9.71208 14.7174 9.71208 14.3197L9.71208 13.1095C9.93407 13.0396 10.1512 12.9579 10.3625 12.8645L11.3038 13.7202C11.6133 14.0013 12.1147 14.0013 12.4241 13.7202L14.0661 12.2275C14.3754 11.9462 14.3754 11.4902 14.066 11.209ZM12.0265 8.88074C11.9174 9.31262 11.7309 9.72192 11.4722 10.0972C11.276 10.3815 11.3222 10.7515 11.5833 10.9888L12.3857 11.7183L11.8639 12.1926L11.0614 11.4631C10.8002 11.2257 10.3934 11.1841 10.0806 11.3621C9.66772 11.5974 9.21762 11.767 8.74278 11.866C8.38287 11.941 8.12784 12.2323 8.12784 12.5679L8.12784 13.5995L7.38989 13.5995L7.38989 12.5679C7.38989 12.2323 7.13487 11.9412 6.77495 11.866C6.30013 11.767 5.85002 11.5974 5.43709 11.3621C5.12453 11.1841 4.7175 11.2257 4.45633 11.4631L3.65382 12.1926L3.13203 11.7183L3.93446 10.9888C4.19556 10.7515 4.24162 10.3815 4.04558 10.0972C3.78683 9.72192 3.60033 9.31262 3.49123 8.88074C3.40865 8.55371 3.08841 8.32178 2.71919 8.32178L1.58424 8.32178L1.58424 7.651L2.71895 7.651C3.08807 7.651 3.40833 7.41907 3.491 7.09204C3.60016 6.66016 3.78659 6.25085 4.04533 5.87573C4.24153 5.59143 4.19539 5.22144 3.9343 4.98401L3.13181 4.25452L3.65366 3.78015L4.45609 4.50977C4.71718 4.74719 5.12421 4.78882 5.43694 4.61072C5.8497 4.37549 6.2998 4.20593 6.7747 4.10681C7.13463 4.03174 7.38965 3.7406 7.38965 3.40491L7.38965 2.37317L8.12759 2.37317L8.12759 3.40479C8.12759 3.74048 8.38263 4.03162 8.74254 4.10669C9.21753 4.20581 9.66756 4.37524 10.0803 4.61047C10.3931 4.78882 10.8002 4.74707 11.0612 4.50952L11.8637 3.78003L12.3855 4.25439L11.5829 4.98389C11.3219 5.22131 11.2758 5.59119 11.4719 5.87561C11.7307 6.25073 11.9171 6.66003 12.0263 7.09192C12.1089 7.41895 12.4292 7.65076 12.7983 7.65076L13.933 7.65076L13.933 8.32166L12.7983 8.32166C12.4292 8.32178 12.1091 8.55359 12.0265 8.88074Z" fill="#E84949" fill-opacity="1.000000" fill-rule="nonzero"/>
		<path id="Vector" d="M7.75868 5.21912C6.08022 5.21912 4.71472 6.46045 4.71472 7.98633C4.71472 9.51221 6.08022 10.7535 7.75868 10.7535C9.43715 10.7535 10.8026 9.51221 10.8026 7.98633C10.8026 6.46045 9.43723 5.21912 7.75868 5.21912ZM7.75868 9.31335C6.95375 9.31335 6.29897 8.71814 6.29897 7.98633C6.29897 7.25464 6.95383 6.6593 7.75868 6.6593C8.56352 6.6593 9.2184 7.25464 9.2184 7.98633C9.2184 8.71814 8.56361 9.31335 7.75868 9.31335Z" fill="#E84949" fill-opacity="1.000000" fill-rule="nonzero"/>
		<path id="small-gear" d="M23.4811 16.2415C23.8253 16.1837 24.0528 15.8833 23.9893 15.5704L23.6904 14.0973C23.6599 13.947 23.565 13.814 23.4267 13.7273C23.2882 13.6407 23.1175 13.6075 22.9523 13.6353L22.0731 13.7826C22.005 13.6763 21.9312 13.5729 21.8523 13.4729L22.3592 12.8036C22.4545 12.6776 22.4909 12.5226 22.4604 12.3723C22.43 12.222 22.335 12.089 22.1966 12.0023L20.8393 11.1528C20.5513 10.9725 20.1566 11.0385 19.9581 11.3005L19.4511 11.97C19.3201 11.9385 19.1877 11.9128 19.054 11.8929L18.8919 11.0938C18.8284 10.7809 18.4975 10.5739 18.1538 10.6318L16.5333 10.9036C16.368 10.9313 16.2216 11.0176 16.1264 11.1433C16.0311 11.2692 15.9947 11.4243 16.0251 11.5746L16.1873 12.3738C16.0702 12.4358 15.9565 12.5028 15.8465 12.5746L15.1102 12.1138C14.9717 12.0271 14.8011 11.9941 14.6359 12.0217C14.4705 12.0494 14.3242 12.1357 14.2289 12.2616L13.2944 13.4954C13.1991 13.6212 13.1627 13.7764 13.1932 13.9265C13.2237 14.0769 13.3186 14.21 13.457 14.2966L14.1933 14.7573C14.1587 14.8765 14.1305 14.9968 14.1086 15.1184L13.2294 15.2659C13.0641 15.2936 12.9177 15.3799 12.8224 15.5056C12.7271 15.6316 12.6907 15.7866 12.7212 15.9369L13.0202 17.41C13.0837 17.7229 13.414 17.9301 13.7583 17.8719L14.6375 17.7245C14.7056 17.8309 14.7794 17.9343 14.8583 18.0344L14.3514 18.7036C14.2561 18.8296 14.2197 18.9846 14.2502 19.1349C14.2806 19.2852 14.3756 19.4182 14.514 19.5048L15.8713 20.3544C16.1593 20.5347 16.5541 20.4686 16.7525 20.2065L17.2594 19.5372C17.3904 19.5686 17.5228 19.5942 17.6566 19.6143L17.8187 20.4135C17.8751 20.691 18.1415 20.8851 18.4412 20.8851C18.4793 20.8851 18.5181 20.8821 18.5568 20.8755L20.1773 20.6038C20.3426 20.5762 20.489 20.4897 20.5842 20.364C20.6795 20.2382 20.7159 20.083 20.6855 19.9329L20.5233 19.1335C20.6404 19.0715 20.7541 19.0045 20.8642 18.9327L21.6003 19.3936C21.7388 19.4802 21.9092 19.5134 22.0747 19.4856C22.24 19.458 22.3863 19.3716 22.4816 19.2458L23.4161 18.012C23.6145 17.7499 23.5418 17.3912 23.2536 17.2108L22.5173 16.7499C22.5519 16.6309 22.5801 16.5104 22.602 16.3889L23.4811 16.2415ZM21.9066 15.334C21.616 15.3827 21.401 15.6074 21.3884 15.8757C21.3739 16.1824 21.3034 16.4825 21.179 16.7681C21.0701 17.0177 21.1654 17.3026 21.4087 17.4548L22.0129 17.8331L21.7971 18.118L21.193 17.7399C20.9496 17.5874 20.6229 17.6083 20.4053 17.7898C20.1564 17.9973 19.873 18.1643 19.563 18.2861C19.2918 18.3926 19.1375 18.6554 19.1911 18.9194L19.3242 19.5754L18.9501 19.6382L18.817 18.9822C18.7635 18.7181 18.5163 18.5227 18.2212 18.5112C17.8835 18.4979 17.5533 18.4338 17.2393 18.3208C17.1632 18.2933 17.0843 18.2802 17.0061 18.2802C16.8024 18.2802 16.605 18.3699 16.4839 18.5297L16.0679 19.0789L15.7546 18.8827L16.1706 18.3335C16.3381 18.1123 16.3153 17.8153 16.1156 17.6174C15.8873 17.3911 15.7037 17.1334 15.5696 16.8516C15.4523 16.6051 15.1627 16.4647 14.873 16.5135L14.1514 16.6346L14.0823 16.2946L14.804 16.1736C15.0945 16.1249 15.3095 15.9 15.3221 15.6317C15.3366 15.3251 15.4071 15.0249 15.5315 14.7393C15.6404 14.4896 15.545 14.2048 15.3017 14.0525L14.6975 13.6743L14.9133 13.3895L15.5175 13.7677C15.761 13.92 16.0875 13.8993 16.3052 13.7177C16.5542 13.5101 16.8376 13.3433 17.1477 13.2213C17.4187 13.1147 17.573 12.8521 17.5194 12.588L17.3863 11.9321L17.7604 11.8694L17.8935 12.5253C17.9471 12.7894 18.1943 12.9849 18.4894 12.9963C18.8268 13.0095 19.157 13.0736 19.471 13.1868C19.7458 13.2858 20.0591 13.199 20.2265 12.9779L20.6426 12.4285L20.9559 12.6246L20.5399 13.174C20.3724 13.3953 20.3952 13.6923 20.5949 13.8901C20.8232 14.1163 21.0069 14.3739 21.1408 14.6558C21.2579 14.9023 21.5473 15.0427 21.8375 14.9939L22.5591 14.8729L22.6281 15.213L21.9066 15.334Z" fill="#E84949" fill-opacity="1.000000" fill-rule="nonzero"/>
		<path id="Vector" d="M19.6207 14.0828C19.1298 13.7755 18.5364 13.6604 17.9503 13.7587C17.3641 13.8569 16.8551 14.157 16.5171 14.6033C15.8192 15.5247 16.0761 16.7904 17.0896 17.4247C17.4753 17.6661 17.9157 17.7819 18.3519 17.7819C19.0621 17.7819 19.761 17.475 20.1933 16.9042C20.8911 15.9828 20.6342 14.717 19.6207 14.0828ZM19.1494 16.2509C18.8479 16.6488 18.2463 16.7498 17.8085 16.4757C17.3706 16.2017 17.2596 15.6548 17.5611 15.2567C17.5611 15.2566 17.5611 15.2566 17.5611 15.2566C17.7071 15.0638 17.927 14.9342 18.1803 14.8917C18.2393 14.882 18.2985 14.877 18.3573 14.877C18.5506 14.877 18.7393 14.9299 18.902 15.0317C19.3399 15.3059 19.4509 15.8527 19.1494 16.2509Z" fill="#E84949" fill-opacity="1.000000" fill-rule="nonzero"/>
	</g>
</svg>
