<svg width="64.951904" height="73.762329" viewBox="0 0 64.9519 73.7623" fill="none" xmlns="http://www.w3.org/2000/svg" xmlns:xlink="http://www.w3.org/1999/xlink">
	<desc>
			Created with Pixso.
	</desc>
	<defs>
		<linearGradient id="paint_linear_1_4699_0" x1="64.618835" y1="74.381149" x2="0.715721" y2="-0.618809" gradientUnits="userSpaceOnUse">
			<stop stop-color="#0D54BE"/>
			<stop offset="1.000000" stop-color="#20ECD3"/>
		</linearGradient>
	</defs>
	<path id="Polygon 1" d="M2 16.9764C0.76239 17.691 0 19.0115 0 20.4406L0 53.3218C0 54.7508 0.76239 56.0714 2 56.7859L30.476 73.2264C31.7136 73.941 33.2383 73.941 34.476 73.2264L62.9519 56.7859C64.1895 56.0714 64.9519 54.7508 64.9519 53.3218L64.9519 20.4406C64.9519 19.0115 64.1895 17.691 62.9519 16.9764L34.476 0.535889C33.2383 -0.17865 31.7136 -0.17865 30.476 0.535889L2 16.9764ZM3 18.7085C2.38123 19.0658 2 19.726 2 20.4406L2 53.3218C2 54.0363 2.38123 54.6965 3 55.0538L31.476 71.4944C32.0947 71.8517 32.8572 71.8517 33.476 71.4944L61.9519 55.0538C62.5707 54.6965 62.9519 54.0363 62.9519 53.3218L62.9519 20.4406C62.9519 19.726 62.5707 19.0658 61.9519 18.7085L33.476 2.26794C32.8572 1.91064 32.0947 1.91064 31.476 2.26794L3 18.7085Z" fill="url(#paint_linear_1_4699_0)" fill-opacity="1.000000" fill-rule="evenodd"/>
</svg>
