<svg width="41.790695" height="31.187500" viewBox="0 0 41.7907 31.1875" fill="none" xmlns="http://www.w3.org/2000/svg" xmlns:xlink="http://www.w3.org/1999/xlink">
	<desc>
			Created with Pixso.
	</desc>
	<defs/>
	<path id="quote" d="M9.49838 12.4375C9.03381 12.4375 8.58797 12.5083 8.14423 12.5729C8.28798 12.0896 8.43588 11.5979 8.67339 11.1562C8.91089 10.5146 9.28172 9.95834 9.65047 9.39792C9.9588 8.79166 10.5026 8.38125 10.9026 7.8625C11.3213 7.35833 11.8921 7.02292 12.3442 6.60416C12.788 6.16666 13.3692 5.94791 13.8317 5.63958C14.3151 5.3625 14.7359 5.05625 15.1859 4.91042L16.3088 4.44791L17.2963 4.0375L16.2859 0L15.0421 0.299995C14.6442 0.400002 14.1588 0.516663 13.6067 0.65625C13.0421 0.760414 12.4401 1.04583 11.7692 1.30625C11.1067 1.60208 10.3401 1.80209 9.62756 2.27708C8.91089 2.73125 8.0838 3.11041 7.35464 3.71875C6.64839 4.34583 5.79631 4.88959 5.16714 5.6875C4.47964 6.43333 3.80048 7.21667 3.27339 8.10833C2.66298 8.95834 2.24838 9.89166 1.81088 10.8146C1.41505 11.7375 1.09631 12.6813 0.835892 13.5979C0.342148 15.4354 0.121307 17.1813 0.0358887 18.675C-0.0349426 20.1708 0.00672913 21.4146 0.094223 22.3146C0.125473 22.7396 0.183807 23.1521 0.225479 23.4375L0.277557 23.7875L0.331726 23.775C0.702271 25.5059 1.55527 27.0965 2.79207 28.3629C4.02885 29.6292 5.59889 30.5196 7.32056 30.9309C9.04222 31.3422 10.8452 31.2577 12.5208 30.6871C14.1964 30.1166 15.6763 29.0833 16.7892 27.7068C17.9022 26.3304 18.6026 24.6669 18.8097 22.909C19.0167 21.151 18.7218 19.3703 17.9591 17.773C17.1964 16.1756 15.997 14.8268 14.4998 13.8826C13.0025 12.9384 11.2685 12.4374 9.49838 12.4375ZM32.4151 12.4375C31.9505 12.4375 31.5046 12.5083 31.0609 12.5729C31.2046 12.0896 31.3526 11.5979 31.5901 11.1562C31.8276 10.5146 32.1984 9.95834 32.5671 9.39792C32.8755 8.79166 33.4192 8.38125 33.8192 7.8625C34.238 7.35833 34.8088 7.02292 35.2609 6.60416C35.7046 6.16666 36.2859 5.94791 36.7484 5.63958C37.2317 5.3625 37.6526 5.05625 38.1026 4.91042L39.2255 4.44791L40.213 4.0375L39.2025 0L37.9588 0.299995C37.5609 0.400002 37.0755 0.516663 36.5234 0.65625C35.9588 0.760414 35.3567 1.04583 34.6859 1.30625C34.0255 1.60416 33.2567 1.80209 32.5442 2.27917C31.8276 2.73333 31.0005 3.1125 30.2713 3.72083C29.5651 4.34792 28.713 4.89167 28.0838 5.6875C27.3963 6.43333 26.7171 7.21667 26.1901 8.10833C25.5796 8.95834 25.1651 9.89166 24.7276 10.8146C24.3317 11.7375 24.013 12.6813 23.7526 13.5979C23.2588 15.4354 23.038 17.1813 22.9526 18.675C22.8817 20.1708 22.9234 21.4146 23.0109 22.3146C23.0421 22.7396 23.1005 23.1521 23.1421 23.4375L23.1942 23.7875L23.2484 23.775C23.6189 25.5059 24.4719 27.0965 25.7087 28.3629C26.9455 29.6292 28.5156 30.5196 30.2372 30.9309C31.9589 31.3422 33.7618 31.2577 35.4375 30.6871C37.1131 30.1166 38.593 29.0833 39.7059 27.7068C40.8188 26.3304 41.5193 24.6669 41.7263 22.909C41.9334 21.151 41.6385 19.3703 40.8757 17.773C40.113 16.1756 38.9137 14.8268 37.4164 13.8826C35.9192 12.9384 34.1852 12.4374 32.4151 12.4375Z" fill="#7572D5" fill-opacity="1.000000" fill-rule="nonzero"/>
</svg>
