<svg width="50px" height="50px" viewBox="0 0 24 24" xmlns="http://www.w3.org/2000/svg" >

<g id="contactShare">
<path fill-rule="evenodd" clip-rule="evenodd" d="M13.803 5.33333C13.803 3.49238 15.3022 2 17.1515 2C19.0008 2 20.5 3.49238 20.5 5.33333C20.5 7.17428 19.0008 8.66667 17.1515 8.66667C16.2177 8.66667 15.3738 8.28596 14.7671 7.67347L10.1317 10.8295C10.1745 11.0425 10.197 11.2625 10.197 11.4872C10.197 11.9322 10.109 12.3576 9.94959 12.7464L15.0323 16.0858C15.6092 15.6161 16.3473 15.3333 17.1515 15.3333C19.0008 15.3333 20.5 16.8257 20.5 18.6667C20.5 20.5076 19.0008 22 17.1515 22C15.3022 22 13.803 20.5076 13.803 18.6667C13.803 18.1845 13.9062 17.7255 14.0917 17.3111L9.05007 13.9987C8.46196 14.5098 7.6916 14.8205 6.84848 14.8205C4.99917 14.8205 3.5 13.3281 3.5 11.4872C3.5 9.64623 4.99917 8.15385 6.84848 8.15385C7.9119 8.15385 8.85853 8.64725 9.47145 9.41518L13.9639 6.35642C13.8594 6.03359 13.803 5.6896 13.803 5.33333Z"></path>
</g>

<g id="contactAt">
<path fill-rule="evenodd" d="M9.818.21a8 8 0 103.046 14.141.75.75 0 10-.912-1.19A6.5 6.5 0 1114.5 8v1c0 .908-.54 1.5-1.25 1.5-.4 0-.691-.157-.894-.399C12.142 9.847 12 9.463 12 9V4.75a.75.75 0 00-1.5 0v.127a4 4 0 10.449 5.825c.076.128.162.25.258.364.484.577 1.194.934 2.043.934C15.04 12 16 10.461 16 9V8A8 8 0 009.818.21zM10.5 8a2.5 2.5 0 10-5 0 2.5 2.5 0 005 0z" clip-rule="evenodd"></path>
</g>

<g id="contactWorld">
<path d="M16.417 9.57a7.917 7.917 0 1 1-8.144-7.908 1.758 1.758 0 0 1 .451 0 7.913 7.913 0 0 1 7.693 7.907zM5.85 15.838q.254.107.515.193a11.772 11.772 0 0 1-1.572-5.92h-3.08a6.816 6.816 0 0 0 4.137 5.727zM2.226 6.922a6.727 6.727 0 0 0-.511 2.082h3.078a11.83 11.83 0 0 1 1.55-5.89q-.249.083-.493.186a6.834 6.834 0 0 0-3.624 3.622zm8.87 2.082a14.405 14.405 0 0 0-.261-2.31 9.847 9.847 0 0 0-.713-2.26c-.447-.952-1.009-1.573-1.497-1.667a8.468 8.468 0 0 0-.253 0c-.488.094-1.05.715-1.497 1.668a9.847 9.847 0 0 0-.712 2.26 14.404 14.404 0 0 0-.261 2.309zm-.974 5.676a9.844 9.844 0 0 0 .713-2.26 14.413 14.413 0 0 0 .26-2.309H5.903a14.412 14.412 0 0 0 .261 2.31 9.844 9.844 0 0 0 .712 2.259c.487 1.036 1.109 1.68 1.624 1.68s1.137-.644 1.623-1.68zm4.652-2.462a6.737 6.737 0 0 0 .513-2.107h-3.082a11.77 11.77 0 0 1-1.572 5.922q.261-.086.517-.194a6.834 6.834 0 0 0 3.624-3.621zM11.15 3.3a6.82 6.82 0 0 0-.496-.187 11.828 11.828 0 0 1 1.55 5.89h3.081A6.815 6.815 0 0 0 11.15 3.3z"></path>
</g>


</svg>