<svg width="50px" height="50px" viewBox="0 0 24 24" xmlns="http://www.w3.org/2000/svg" >

<g id="footerGithub">
<path d="M9.464 17.178a4.506 4.506 0 0 1-2.013.317 4.29 4.29 0 0 1-2.007-.317.746.746 0 0 1-.277-.587c0-.22-.008-.798-.012-1.567-2.564.557-3.105-1.236-3.105-1.236a2.44 2.44 0 0 0-1.024-1.348c-.836-.572.063-.56.063-.56a1.937 1.937 0 0 1 1.412.95 1.962 1.962 0 0 0 2.682.765 1.971 1.971 0 0 1 .586-1.233c-2.046-.232-4.198-1.023-4.198-4.554a3.566 3.566 0 0 1 .948-2.474 3.313 3.313 0 0 1 .091-2.438s.773-.248 2.534.945a8.727 8.727 0 0 1 4.615 0c1.76-1.193 2.532-.945 2.532-.945a3.31 3.31 0 0 1 .092 2.438 3.562 3.562 0 0 1 .947 2.474c0 3.54-2.155 4.32-4.208 4.548a2.195 2.195 0 0 1 .625 1.706c0 1.232-.011 2.227-.011 2.529a.694.694 0 0 1-.272.587z"></path>
</g>
<g id="footerLinkedin">
<path d="M2.5 18h3V6.9h-3V18zM4 2c-1 0-1.8.8-1.8 1.8S3 5.6 4 5.6s1.8-.8 1.8-1.8S5 2 4 2zm6.6 6.6V6.9h-3V18h3v-5.7c0-3.2 4.1-3.4 4.1 0V18h3v-6.8c0-5.4-5.7-5.2-7.1-2.6z"></path>
</g>

<g id="footerTelegram">

<path d="m20.665 3.717-17.73 6.837c-1.21.486-1.203 1.161-.222 1.462l4.552 1.42 10.532-6.645c.498-.303.953-.14.579.192l-8.533 7.701h-.002l.002.001-.314 4.692c.46 0 .663-.211.921-.46l2.211-2.15 4.599 3.397c.848.467 1.457.227 1.668-.785l3.019-14.228c.309-1.239-.473-1.8-1.282-1.434z"></path>
</g>





</svg>