<svg width="120.000000" height="120.000000" viewBox="0 0 120 120" fill="none" xmlns="http://www.w3.org/2000/svg" xmlns:xlink="http://www.w3.org/1999/xlink">

<g id = 'falcon'>

<path d="M20.81,4.58c-1.24.78-3,2-5.37,3.51a60,60,0,0,0-5.83,4.18c-.81.84-1.45,3-2.94,4.82a23.7,23.7,0,0,1-3.2,3.29,9.75,9.75,0,0,0,3.2-1.23A12.56,12.56,0,0,0,10,16.35a17.63,17.63,0,0,1,1.35-1.86c1.18-1.12,5.31-2.8,7.83-3.6s3.1-.31,5.6-.78a9.72,9.72,0,0,0,3.37-1L30,3.4,20.81,6.79Z" style="fill:#f7dc4f"/>

<path d="M30,10.55l-3.51,6.12h-2.8L16,15.12v-1L19.57,12l2.62-.42ZM12.88,16.73l-.31,3.09-1.63.48-1.71-.57Z" style="fill:#f7dc4f"/>

<path d="M3.47,21a2.34,2.34,0,0,0-.28,1c0,.45-1.19.7-1.19,2.11a3.65,3.65,0,0,0,1.87,2.9L6.34,28.6A3.53,3.53,0,0,1,6,26.87a1.5,1.5,0,0,1,.79-1.35c.67-.53,6.77-1.59,8.59-1.33a5.92,5.92,0,0,1,3.37,1.87L27,20l-2.13-1.94H23.47l-1.94-.93H15.92l-2.36,4.93q-4.72-.23-5.67-.34C7.25,21.64,5.79,21.43,3.47,21Z" style="fill:#f7dc4f"/>

</g>

<g id='css'>
<defs>
		<clipPath id="clip2_5710">
			<rect width="120.000000" height="120.000000" fill="white" fill-opacity="0"/>
		</clipPath>
	</defs>
	<rect width="120.000000" height="120.000000" fill="#FFFFFF" fill-opacity="0"/>
	<g clip-path="url(#clip2_5710)">
		<path d="M22.1323 102.004L13.7061 7.5L106.293 7.5L97.856 101.989L59.9434 112.5L22.1323 102.004Z" fill="#E44F26" fill-opacity="1.000000" fill-rule="nonzero"/>
		<path d="M60 104.468L90.6377 95.9738L97.8452 15.2288L60 15.2288L60 104.468Z" fill="#F1662A" fill-opacity="1.000000" fill-rule="nonzero"/>
		<path d="M60 50.2762L44.6626 50.2762L43.605 38.4074L60 38.4074L60 26.8162L30.9375 26.8162L31.2148 29.9287L34.061 61.8674L60 61.8674L60 50.2762ZM60 80.3774L59.9473 80.3924L47.04 76.9087L46.2148 67.6649L34.5786 67.6649L36.2026 85.8599L59.9473 92.4524L60 92.4374L60 80.3774Z" fill="#EBEBEB" fill-opacity="1.000000" fill-rule="nonzero"/>
		<path d="M59.959 50.2762L59.959 61.8674L74.2314 61.8674L72.8892 76.9012L59.959 80.3887L59.959 92.4487L83.7227 85.8599L83.895 83.9024L86.6177 53.3887L86.9028 50.2762L59.959 50.2762ZM59.959 26.8162L59.959 38.4074L87.9565 38.4074L88.189 35.8049L88.7178 29.9287L88.9951 26.8162L59.959 26.8162Z" fill="#FFFFFF" fill-opacity="1.000000" fill-rule="nonzero"/>
	</g>
</g>

<g id="vscode">
<defs>
		<clipPath id="clip2_5696">
			<rect width="112.000000" height="112.000000" fill="white" fill-opacity="0"/>
		</clipPath>
	</defs>
	<rect width="112.000000" height="112.000000" fill="#FFFFFF" fill-opacity="0"/>
	<g clip-path="url(#clip2_5696)">
		<path d="M101.535 17.605L81.3538 7.88899C80.2141 7.33948 78.9319 7.15814 77.6843 7.37012C76.437 7.58208 75.2866 8.17686 74.3923 9.07199L8.32983 69.3C7.52832 70.0273 7.04858 71.0432 6.99609 72.1243C6.9436 73.2053 7.32251 74.2629 8.0498 75.0645C8.13745 75.159 8.22485 75.25 8.31934 75.334L13.7129 80.234C14.4177 80.8754 15.3247 81.2498 16.2769 81.2919C17.2288 81.3341 18.1655 81.0416 18.9243 80.465L98.4968 20.125C99.0979 19.6689 99.8142 19.3896 100.565 19.3186C101.317 19.2477 102.073 19.3877 102.749 19.7231C103.424 20.0585 103.993 20.5758 104.391 21.217C104.789 21.8581 105 22.5975 105 23.352L105 23.1175C105 21.9656 104.675 20.8372 104.062 19.862C103.448 18.8868 102.573 18.1045 101.535 17.605Z" fill="#0065A9" fill-opacity="1.000000" fill-rule="nonzero"/>
		<path d="M101.535 94.395L81.3538 104.115C80.2139 104.662 78.9319 104.843 77.6848 104.631C76.4377 104.419 75.2874 103.825 74.3923 102.932L8.32983 42.7C7.52832 41.9727 7.04858 40.9568 6.99609 39.8758C6.9436 38.7947 7.32251 37.7371 8.0498 36.9355C8.13745 36.841 8.22485 36.75 8.31934 36.666L13.7129 31.766C14.4185 31.1219 15.3276 30.7459 16.282 30.7037C17.2363 30.6615 18.1753 30.9557 18.9348 31.535L98.4968 91.875C99.0979 92.3311 99.8142 92.6104 100.565 92.6814C101.317 92.7524 102.073 92.6123 102.749 92.2769C103.424 91.9415 103.993 91.4242 104.391 90.7831C104.789 90.1419 105 89.4025 105 88.648L105 88.9C104.996 90.0488 104.669 91.1733 104.056 92.1451C103.444 93.1168 102.57 93.8965 101.535 94.395Z" fill="#007ACC" fill-opacity="1.000000" fill-rule="nonzero"/>
		<path d="M81.354 104.114C80.2139 104.662 78.9319 104.843 77.6848 104.631C76.438 104.419 75.2874 103.825 74.3923 102.931C74.895 103.427 75.533 103.764 76.2261 103.899C76.9192 104.034 77.6367 103.962 78.2888 103.691C78.9409 103.42 79.4988 102.963 79.8921 102.376C80.2854 101.79 80.4968 101.1 80.5 100.394L80.5 11.6059C80.5005 10.8964 80.2905 10.2027 79.8965 9.61269C79.5024 9.02264 78.9424 8.56282 78.2866 8.29146C77.6311 8.0201 76.9099 7.9494 76.2141 8.08833C75.5183 8.22728 74.8794 8.5696 74.3784 9.07191C75.2727 8.17711 76.4231 7.58229 77.6702 7.36974C78.9172 7.15718 80.1997 7.33737 81.3398 7.88541L101.517 17.5874C102.559 18.0844 103.438 18.8657 104.054 19.8411C104.67 20.8165 104.998 21.9462 105 23.0999L105 88.8999C105 90.0527 104.675 91.1822 104.061 92.1581C103.448 93.134 102.571 93.9167 101.531 94.4159L81.354 104.114Z" fill="#1F9CF0" fill-opacity="1.000000" fill-rule="nonzero"/>
	</g>
</g>

<g id = "js">
<defs>
		<clipPath id="clip2_5700">
			<rect width="120.000000" height="120.000000" fill="white" fill-opacity="0"/>
		</clipPath>
	</defs>
	<rect width="120.000000" height="120.000000" fill="#FFFFFF" fill-opacity="0"/>
	<g clip-path="url(#clip2_5700)">
		<path d="M7.5 7.5L112.5 7.5L112.5 112.5L7.5 112.5L7.5 7.5Z" fill="#F5DE19" fill-opacity="1.000000" fill-rule="nonzero"/>
		<path d="M78.0337 89.5312C78.9285 91.3485 80.3184 92.8759 82.0435 93.9375C83.7686 94.9991 85.7583 95.5515 87.7837 95.5312C91.8713 95.5312 94.4851 93.4875 94.4851 90.6562C94.4851 87.2812 91.8 86.0738 87.3 84.105L84.8325 83.0475C77.7075 80.0138 72.9824 76.215 72.9824 68.1825C72.9824 60.7837 78.6074 55.1475 87.4312 55.1475C90.2876 54.9412 93.1416 55.5805 95.637 56.9856C98.1326 58.3907 100.159 60.4994 101.464 63.0488L93.75 67.98C93.2476 66.716 92.3728 65.6345 91.2417 64.8791C90.1104 64.1236 88.7764 63.7298 87.4163 63.75C86.8228 63.6906 86.2236 63.7555 85.6567 63.9404C85.0896 64.1254 84.5676 64.4265 84.1233 64.8244C83.6792 65.2224 83.3228 65.7085 83.0769 66.2518C82.8311 66.7951 82.7009 67.3837 82.6951 67.98C82.6951 70.9388 84.5288 72.1388 88.7625 73.98L91.23 75.0375C99.615 78.6338 104.355 82.2975 104.355 90.5363C104.355 99.42 97.3762 104.287 88.0051 104.287C84.3538 104.52 80.7129 103.691 77.5222 101.901C74.3318 100.11 71.7273 97.4342 70.0237 94.1963L78.0337 89.5312ZM43.1775 90.3863C44.7263 93.135 46.1362 95.46 49.5264 95.46C52.7664 95.46 54.8137 94.1925 54.8137 89.2612L54.8137 55.71L64.6799 55.71L64.6799 89.3925C64.6799 99.6075 58.6799 104.258 49.9463 104.258C46.8591 104.426 43.7932 103.657 41.1514 102.051C38.5095 100.444 36.4158 98.0761 35.145 95.2575L43.1775 90.3863Z" fill="#000000" fill-opacity="1.000000" fill-rule="nonzero"/>
	</g>
	</g>

	<g id = "react">
	<defs>
		<clipPath id="clip2_5687">
			<rect width="100" height="100" fill="white" fill-opacity="0"/>
		</clipPath>
	</defs>
	<rect width="100" height="100" fill="#FFFFFF" fill-opacity="0"/>
	<g clip-path="url(#clip2_5687)">
		<path d="M92.9055 32.7027C91.7029 32.2886 90.4902 31.905 89.2686 31.5522C89.4739 30.7106 89.6626 29.8791 89.8303 29.0622C92.5837 15.6483 90.7837 4.84172 84.636 1.28369C78.7415 -2.12728 69.1016 1.42943 59.3657 9.93336C58.4062 10.773 57.468 11.6368 56.552 12.5239C55.9387 11.934 55.3147 11.3555 54.6802 10.7888C44.4766 1.6961 34.2493 -2.13614 28.1079 1.43208C22.2188 4.85368 20.4749 15.0126 22.9536 27.7253C23.2002 28.9844 23.4788 30.2369 23.7888 31.4818C22.3411 31.8947 20.9441 32.3341 19.6072 32.8019C7.64429 36.9881 0.00463867 43.5482 0.00463867 50.3528C0.00463867 57.3808 8.20605 64.4299 20.666 68.7043C21.6763 69.0494 22.6948 69.3692 23.7207 69.6633C23.3875 71.0041 23.0918 72.354 22.8335 73.7113C20.4705 86.2034 22.3159 96.1222 28.1892 99.5221C34.2554 103.033 44.4368 99.4247 54.3506 90.7267C55.1543 90.0196 55.9404 89.2924 56.7083 88.5459C57.7002 89.5065 58.7188 90.4392 59.7625 91.3429C69.366 99.6364 78.8501 102.985 84.7175 99.5762C90.7781 96.0549 92.7478 85.3994 90.1907 72.4355C89.989 71.4199 89.7632 70.4093 89.5132 69.4046C90.228 69.192 90.9299 68.9732 91.614 68.7455C104.567 64.4384 112.995 57.4747 112.995 50.3528C112.995 43.5234 105.109 36.919 92.9055 32.7027ZM90.0962 64.1473C89.4783 64.3524 88.8445 64.5504 88.1982 64.7431C86.7683 60.1995 84.8386 55.3683 82.4768 50.3763C84.7305 45.5035 86.5859 40.7339 87.9758 36.2199C89.1318 36.5557 90.2532 36.9097 91.3347 37.2831C101.791 40.8961 108.168 46.2371 108.168 50.3528C108.168 54.7366 101.281 60.4276 90.0962 64.1473ZM85.4556 73.3764C86.5864 79.1086 86.7476 84.2915 85.9985 88.3435C85.3259 91.9843 83.9727 94.4114 82.2988 95.3838C78.7383 97.4525 71.1235 94.7636 62.9109 87.6706C61.9399 86.8304 60.9927 85.9633 60.0698 85.0703C63.2539 81.5756 66.4355 77.513 69.541 73.0008C75.0034 72.5144 80.1641 71.7188 84.8438 70.633C85.0693 71.5425 85.2732 72.4572 85.4556 73.3764ZM38.5256 95.0263C35.0466 96.2591 32.2759 96.2946 30.6008 95.3253C27.0369 93.2624 25.5552 85.298 27.5762 74.615C27.8164 73.3526 28.0916 72.0972 28.4011 70.8501C33.0293 71.8778 38.1523 72.6167 43.6274 73.0623C46.7542 77.4776 50.0278 81.5357 53.3269 85.0893C52.6257 85.7702 51.908 86.4337 51.1743 87.0792C46.7903 90.9252 42.3972 93.6539 38.5256 95.0263ZM22.2275 64.1203C16.718 62.2301 12.168 59.7738 9.04907 57.0933C6.24658 54.6848 4.83179 52.2931 4.83179 50.3528C4.83179 46.2234 10.9656 40.9563 21.196 37.3766C22.4377 36.9424 23.7371 36.5327 25.0854 36.1482C26.4995 40.764 28.3542 45.5903 30.5925 50.4707C28.3252 55.4232 26.4441 60.3266 25.0161 64.997C24.0796 64.7277 23.1499 64.4354 22.2275 64.1203ZM27.6909 26.7946C25.5674 15.903 26.9775 7.687 30.5266 5.62491C34.3066 3.42861 42.6653 6.56005 51.4753 14.4115C52.0498 14.9246 52.615 15.4482 53.1707 15.9818C49.8877 19.5199 46.6443 23.548 43.5454 27.9371C38.2312 28.4314 33.1445 29.2252 28.4678 30.2888C28.1794 29.131 27.9204 27.966 27.6909 26.795L27.6909 26.7946ZM76.4299 38.8738C75.3254 36.9588 74.1797 35.0679 72.9939 33.2023C76.5991 33.6599 80.0532 34.2673 83.2969 35.0097C82.3232 38.1425 81.1094 41.4175 79.6807 44.7753C78.6365 42.7866 77.5525 40.8191 76.4299 38.8738ZM56.5542 19.4442C58.7805 21.8651 61.0103 24.5677 63.2034 27.5003C58.7544 27.2894 54.2981 27.2885 49.8489 27.4976C52.0444 24.5921 54.2932 21.893 56.5542 19.4442ZM36.551 38.9071C35.4424 40.8366 34.3789 42.7919 33.3611 44.7713C31.9558 41.4254 30.7532 38.1354 29.771 34.9583C32.9949 34.2345 36.4326 33.6427 40.0149 33.1935C38.8157 35.0704 37.6609 36.9753 36.551 38.9066L36.551 38.9071ZM40.1177 67.8569C36.4167 67.4422 32.9272 66.881 29.7043 66.1766C30.7019 62.9429 31.9312 59.5828 33.3669 56.1652C34.3887 58.1461 35.4565 60.1025 36.5698 62.033C37.7148 64.0175 38.9004 65.9613 40.1177 67.8569ZM56.6875 81.6026C54.3994 79.1255 52.1177 76.3847 49.8892 73.4371C52.0527 73.5222 54.2583 73.5656 56.5 73.5656C58.803 73.5656 61.0796 73.5137 63.3206 73.4136C61.1201 76.4144 58.8987 79.1591 56.6875 81.6026ZM79.7261 55.9907C81.2366 59.4459 82.5095 62.7882 83.5203 65.9667C80.2444 66.7171 76.7073 67.3213 72.9802 67.77C74.1746 65.8699 75.3311 63.9461 76.449 61.9997C77.5857 60.0214 78.6782 58.0179 79.7261 55.9907ZM72.2678 59.5793C70.5564 62.5634 68.7485 65.4908 66.8474 68.357C63.4036 68.6018 59.9524 68.7234 56.5 68.7216C52.9836 68.7216 49.5635 68.6117 46.2698 68.3973C44.3191 65.5378 42.4768 62.6052 40.7471 59.6059L40.7476 59.6059C39.0259 56.6224 37.4175 53.5744 35.9263 50.4685C37.4138 47.3618 39.0171 44.3123 40.7329 41.3266L40.7324 41.3271C42.4475 38.3406 44.2751 35.4206 46.2112 32.5733C49.5713 32.3181 53.0171 32.1853 56.4995 32.1853L56.5 32.1853C59.9983 32.1853 63.4485 32.3195 66.8076 32.5764C68.7241 35.4194 70.54 38.3294 72.252 41.3009C73.9736 44.2801 75.5981 47.3146 77.123 50.3998C75.6138 53.5165 73.9944 56.5783 72.2678 59.5793ZM82.2251 5.4805C86.0085 7.6706 87.4802 16.5023 85.103 28.0841C84.9512 28.823 84.7808 29.5756 84.5955 30.3389C79.9072 29.2527 74.8169 28.4452 69.4873 27.9433C66.3826 23.5059 63.1655 19.4717 59.936 15.9792C60.7825 15.1603 61.6489 14.3627 62.5349 13.5871C70.8767 6.30135 78.6731 3.42462 82.2251 5.4805ZM56.5 40.2263C62.0723 40.2263 66.5896 44.7602 66.5896 50.3528C66.5896 55.9455 62.0723 60.4794 56.5 60.4794C50.9277 60.4794 46.4102 55.9455 46.4102 50.3528C46.4102 44.7602 50.9277 40.2263 56.5 40.2263Z" fill="#00D8FF" fill-opacity="1.000000" fill-rule="nonzero"/>
	</g>
	</g>
	
<g id="redux">
	<path id="Vector" d="M72.697 69.5627C76.5688 69.1619 79.5061 65.8242 79.3726 61.8184C79.2393 57.8131 75.9011 54.6086 71.896 54.6086L71.6292 54.6086C67.4897 54.7422 64.2856 58.2135 64.4192 62.3525C64.553 64.3553 65.3538 66.091 66.5554 67.2926C62.0159 76.2385 55.0732 82.7807 44.6594 88.2549C37.5833 91.9934 30.2402 93.3287 22.8972 92.3943C16.8889 91.593 12.2161 88.923 9.27832 84.5164C5.0061 77.9742 4.60571 70.8975 8.21069 63.8213C10.7476 58.7475 14.7524 55.009 17.2893 53.1398C16.7554 51.4041 15.9541 48.4668 15.5537 46.3307C-3.80566 60.35 -1.80298 79.3094 4.07178 88.2549C8.47754 94.9311 17.4229 99.0701 27.303 99.0701C29.9729 99.0701 32.6431 98.8029 35.3135 98.1357C52.4033 94.7975 65.354 84.65 72.697 69.5627ZM96.1956 53.0066C86.0483 41.1234 71.095 34.5811 54.0054 34.5811L51.8691 34.5811C50.6677 32.1779 48.1306 30.5754 45.3271 30.5754L45.0598 30.5754C40.9214 30.709 37.7173 34.1803 37.8503 38.3197C37.9841 42.325 41.3218 45.5295 45.3271 45.5295L45.5938 45.5295C48.5312 45.3959 51.0681 43.5266 52.136 40.9898L54.5393 40.9898C64.6865 40.9898 74.2991 43.927 82.9778 49.6684C89.6533 54.0746 94.4597 59.816 97.1299 66.7586C99.3997 72.3664 99.2659 77.8406 96.8628 82.5139C93.1245 89.5902 86.8496 93.4623 78.5718 93.4623C73.2312 93.4623 68.1577 91.8598 65.4873 90.6582C64.0188 91.9934 61.3484 94.1295 59.479 95.4652C65.2205 98.1352 71.095 99.6041 76.7024 99.6041C89.5198 99.6041 98.9993 92.5275 102.604 85.4512C106.476 77.707 106.208 64.3553 96.1956 53.0066ZM28.3708 71.832C28.5044 75.8377 31.8423 79.0418 35.8477 79.0418L36.1147 79.0418C40.2537 78.9086 43.4578 75.4369 43.3242 71.2979C43.1909 67.2922 39.8528 64.0881 35.8477 64.0881L35.5808 64.0881C35.3135 64.0881 34.9126 64.0881 34.6462 64.2213C29.1721 55.1422 26.9023 45.2623 27.7036 34.5807C28.2373 26.5697 30.9077 19.6266 35.5808 13.8852C39.4524 8.94508 46.9292 6.5418 52.0029 6.40861C66.155 6.14139 72.1626 23.7656 72.5635 30.8422C74.2991 31.2426 77.2366 32.1775 79.2393 32.8451C77.637 11.2156 64.2856 0 51.4688 0C39.4524 0 28.3708 8.67869 23.9648 21.4963C17.8232 38.5865 21.8286 55.009 29.3054 67.9602C28.6382 68.8947 28.2373 70.3635 28.3708 71.8324L28.3708 71.832Z" fill="#764ABC" fill-opacity="1.000000" fill-rule="nonzero"/>
</g>

<g id = "github">
<path id="Vector" d="M44 0C19.6899 0 0 19.69 0 44C0 63.47 12.595 79.915 30.085 85.745C32.2849 86.13 33.1101 84.81 33.1101 83.655C33.1101 82.61 33.0549 79.145 33.0549 75.46C22 77.495 19.1399 72.765 18.26 70.29C17.7649 69.025 15.6201 65.12 13.75 64.075C12.21 63.25 10.01 61.215 13.6951 61.16C17.1599 61.105 19.635 64.35 20.46 65.67C24.4199 72.325 30.7451 70.455 33.2749 69.3C33.6599 66.44 34.8149 64.515 36.0801 63.415C26.29 62.315 16.0601 58.52 16.0601 41.69C16.0601 36.905 17.7649 32.945 20.5701 29.865C20.1299 28.765 18.5901 24.255 21.01 18.205C21.01 18.205 24.6951 17.05 33.1101 22.715C36.6299 21.725 40.3701 21.23 44.1101 21.23C47.8501 21.23 51.5901 21.725 55.1101 22.715C63.5249 16.995 67.21 18.205 67.21 18.205C69.6299 24.255 68.0901 28.765 67.6499 29.865C70.4551 32.945 72.1599 36.85 72.1599 41.69C72.1599 58.575 61.875 62.315 52.085 63.415C53.6799 64.79 55.0549 67.43 55.0549 71.555C55.0549 77.44 55 82.17 55 83.655C55 84.81 55.825 86.185 58.0249 85.745C66.7598 82.796 74.3496 77.1822 79.7268 69.6937C85.104 62.2052 87.9973 53.2191 88 44C88 19.69 68.3101 0 44 0Z" fill="#000000" fill-opacity="1.000000" fill-rule="evenodd"/></g>

<g id="html">
<defs>
		<clipPath id="clip2_5703">
			<rect width="120.000000" height="119.000000" fill="white" fill-opacity="0"/>
		</clipPath>
	</defs>
	<rect width="120.000000" height="119.000000" fill="#FFFFFF" fill-opacity="0"/>
	<g clip-path="url(#clip2_5703)">
		<path d="M22.1323 101.154L13.71 7.4375L106.29 7.4375L97.8564 101.139L59.9438 111.562L22.1323 101.154Z" fill="#1572B6" fill-opacity="1.000000" fill-rule="nonzero"/>
		<path d="M60 103.597L90.6377 95.1739L97.8452 15.1018L60 15.1018L60 103.597Z" fill="#33A9DC" fill-opacity="1.000000" fill-rule="nonzero"/>
		<path d="M60 49.0541L75.3374 49.0541L76.395 37.2842L60 37.2842L60 25.7896L89.0625 25.7896L88.7852 28.8724L85.939 60.5487L60 60.5487L60 49.0541Z" fill="#FFFFFF" fill-opacity="1.000000" fill-rule="nonzero"/>
		<path d="M60.0713 78.9045L60.0186 78.9193L47.1113 75.4609L46.2861 66.2942L34.6499 66.2942L36.2734 84.3413L60.0151 90.8788L60.0713 90.864L60.0713 78.9045Z" fill="#EBEBEB" fill-opacity="1.000000" fill-rule="nonzero"/>
		<path d="M74.3511 60.0615L72.9561 75.4534L60.0298 78.9119L60.0298 90.8714L83.7896 84.3412L83.9658 82.4001L85.98 60.0615L74.3511 60.0615Z" fill="#FFFFFF" fill-opacity="1.000000" fill-rule="nonzero"/>
		<path d="M60.041 25.7896L60.041 37.2842L32.0435 37.2842L31.811 34.6997L31.2822 28.8724L31.0049 25.7896L60.041 25.7896ZM60 49.0541L60 60.5487L47.2534 60.5487L47.021 57.9642L46.4961 52.1369L46.2188 49.0541L60 49.0541Z" fill="#EBEBEB" fill-opacity="1.000000" fill-rule="nonzero"/>
	</g>
	</g>

	<g id="git">
	<defs>
		<clipPath id="clip2_5685">
			<rect width="105.000000" height="105.000000" fill="white" fill-opacity="0"/>
		</clipPath>
	</defs>
	<rect width="105.000000" height="105.000000" fill="#FFFFFF" fill-opacity="0"/>
	<g clip-path="url(#clip2_5685)">
		<path d="M103.02 47.8219L57.1758 1.98038C54.5374 -0.659805 50.2551 -0.659805 47.6133 1.98038L38.0938 11.5001L50.1699 23.5763C52.9761 22.6281 56.1943 23.2642 58.4312 25.5012C60.679 27.7525 61.3105 30.9981 60.3394 33.8134L71.9775 45.452C74.7932 44.482 78.042 45.1095 80.291 47.3621C83.4341 50.5039 83.4341 55.596 80.291 58.7399C77.1472 61.8841 72.0549 61.8841 68.9094 58.7399C66.5454 56.3733 65.9614 52.9013 67.1582 49.9888L56.3047 39.1352L56.3035 67.6973C57.0901 68.0863 57.8088 68.6002 58.4312 69.2189C61.5742 72.3607 61.5742 77.4532 58.4312 80.5995C55.2874 83.7422 50.1929 83.7422 47.0535 80.5995C43.9104 77.4532 43.9104 72.3611 47.0535 69.2193C47.8066 68.4658 48.7019 67.869 49.6873 67.4635L49.6873 38.6352C48.7004 38.2324 47.8047 37.6353 47.0535 36.8793C44.6721 34.5013 44.0996 31.0071 45.3198 28.0831L33.4155 16.1775L1.98096 47.6098C-0.6604 50.2525 -0.6604 54.5349 1.98096 57.1755L47.8259 103.018C50.4653 105.658 54.7463 105.658 57.3892 103.018L103.019 57.3884C105.66 54.747 105.66 50.4621 103.019 47.8219L103.02 47.8219Z" fill="#DE4C36" fill-opacity="1.000000" fill-rule="nonzero"/>
	</g></g>


	<g id='chain'>
		<defs>
		<clipPath id="clip4537_858">
			<rect id="akar-icons:link-chain" width="20.000000" height="20.000000" fill="white" fill-opacity="0"/>
		</clipPath>
	</defs>
	<rect id="akar-icons:link-chain" width="20.000000" height="20.000000" fill="#FFFFFF" fill-opacity="0"/>
	<g clip-path="url(#clip4537_858)">
		<path id="Vector" d="M11.2866 8.71326C10.604 8.03101 9.67847 7.64771 8.71338 7.64771C7.74829 7.64771 6.82251 8.03101 6.13989 8.71326L3.56592 11.2866C2.8833 11.9692 2.49976 12.895 2.49976 13.8604C2.49976 14.8257 2.8833 15.7516 3.56592 16.4341C4.24854 17.1167 5.17432 17.5002 6.13965 17.5002C7.10498 17.5002 8.03076 17.1167 8.71338 16.4341L10 15.1475" stroke="#000000" stroke-opacity="1.000000" stroke-width="1.666667" stroke-linejoin="round" stroke-linecap="round"/>
		<path id="Vector" d="M8.71338 11.2866C9.396 11.969 10.3215 12.3523 11.2866 12.3523C12.252 12.3523 13.1775 11.969 13.8601 11.2866L16.4343 8.71338C17.1167 8.03076 17.5002 7.10498 17.5002 6.13965C17.5002 5.17419 17.1167 4.24841 16.4343 3.5658C15.7517 2.88318 14.8257 2.49976 13.8604 2.49976C12.895 2.49976 11.9692 2.88318 11.2866 3.5658L10 4.85254" stroke="#000000" stroke-opacity="1.000000" stroke-width="1.666667" stroke-linejoin="round" stroke-linecap="round"/>
	</g>
	</g>

	<g id ="gitIcon">
		<path id="Vector" d="M10 0C4.4751 0 0 4.47498 0 10C0 14.425 2.8623 18.1625 6.8374 19.4875C7.3374 19.575 7.5249 19.275 7.5249 19.0125C7.5249 18.775 7.5127 17.9875 7.5127 17.15C5 17.6125 4.3501 16.5375 4.1499 15.975C4.0376 15.6875 3.5498 14.8 3.125 14.5625C2.7749 14.375 2.2749 13.9125 3.1123 13.9C3.8999 13.8875 4.4624 14.625 4.6499 14.925C5.5498 16.4375 6.9873 16.0125 7.5625 15.75C7.6499 15.1 7.9126 14.6625 8.2002 14.4125C5.9751 14.1625 3.6499 13.3 3.6499 9.47498C3.6499 8.38745 4.0376 7.48755 4.6748 6.78748C4.5752 6.53748 4.2251 5.51245 4.7749 4.13745C4.7749 4.13745 5.6123 3.875 7.5249 5.16248C8.3252 4.9375 9.1748 4.82495 10.0249 4.82495C10.875 4.82495 11.7251 4.9375 12.5249 5.16248C14.4375 3.86255 15.2749 4.13745 15.2749 4.13745C15.8252 5.51245 15.4751 6.53748 15.375 6.78748C16.0127 7.48755 16.3999 8.375 16.3999 9.47498C16.3999 13.3125 14.0625 14.1625 11.8374 14.4125C12.2002 14.725 12.5127 15.325 12.5127 16.2625C12.5127 17.6 12.5 18.675 12.5 19.0125C12.5 19.275 12.6875 19.5875 13.1875 19.4875C15.1729 18.8173 16.8975 17.5414 18.1196 15.8395C19.3418 14.1376 19.9995 12.0952 20 10C20 4.47498 15.5249 0 10 0Z" fill="#000000" fill-opacity="1.000000" fill-rule="evenodd"/>
	</g>

	<g id = "telegramLink" fill="#015761">
<path d="M18.4 22.8c.3.2.7.3 1 .1.5-.1.7-.4.8-.8L24 3.9c0-.2 0-.5-.3-.7A.8.8 0 0 0 23 3L.5 11.4c-.3.1-.5.4-.5.8s.2.7.6.8L6 14.7l2.2 6.6c0 .3.3.5.6.5.3.1.6 0 .8-.2l3-2.9 5.7 4ZM7.4 14 9 19.6l.3-3.5L19.6 7v-.3c0-.1-.2-.2-.3 0L7.3 14Z"/>
</g>


<g id="linkin">

<path fill-rule="evenodd" d="M116.5 500.2V170.7H7v329.5h109.5zM61.8 125.7c38.1 0 62-25.4 62-57-.8-32.3-23.9-57-61.3-57-37.5 0-62 24.7-62 57 0 31.6 23.8 57 60.5 57h.8zM177 500.2s1.5-298.6 0-329.5h109.6v47.7h-.8c14.4-22.4 40.4-55.5 99.5-55.5 72 0 126.1 47.1 126.1 148.3v189H402V324c0-44.3-15.9-74.5-55.5-74.5-30.3 0-48.3 20.4-56.2 40-3 7-3.6 17-3.6 26.8v184H177z" clip-rule="evenodd"/>

</g>

</svg>