<?xml version="1.0" encoding="utf-8"?><!-- Uploaded to: SVG Repo, www.svgrepo.com, Generator: SVG Repo Mixer Tools -->
<svg  width="80px" height="80px" viewBox="0 0 50 50" fill="none" xmlns="http://www.w3.org/2000/svg">

<g id = "js">
<g  stroke-width="0"></g><g  stroke-linecap="round" stroke-linejoin="round"></g> <rect x="2" y="2" width="28" height="28" fill="#FFCA28"></rect> <path d="M19 25.2879L21.0615 23.9237C21.2231 24.4313 22.2462 25.6368 23.5385 25.6368C24.8308 25.6368 25.4308 24.931 25.4308 24.463C25.4308 23.1878 24.1112 22.7382 23.4774 22.5223C23.374 22.4871 23.289 22.4581 23.2308 22.4328C23.2009 22.4198 23.1558 22.4025 23.0979 22.3804C22.393 22.1111 19.7923 21.1175 19.7923 18.2373C19.7923 15.065 22.8538 14.7002 23.5462 14.7002C23.9991 14.7002 26.1769 14.7557 27.2615 16.7939L25.2615 18.1898C24.8231 17.3015 24.0946 17.0081 23.6462 17.0081C22.5385 17.0081 22.3077 17.8201 22.3077 18.1898C22.3077 19.227 23.5112 19.6919 24.5273 20.0844C24.7932 20.1871 25.0462 20.2848 25.2615 20.3866C26.3692 20.91 28 21.7666 28 24.463C28 25.8136 26.8672 28.0002 24.0154 28.0002C20.1846 28.0002 19.1692 25.7003 19 25.2879Z" fill="#3E3E3E"></path> <path d="M9 25.5587L11.1487 24.1953C11.317 24.7026 11.9713 25.638 12.9205 25.638C13.8698 25.638 14.3557 24.663 14.3557 24.1953V15.0002H16.9982V24.1953C17.041 25.4636 16.3376 28.0002 13.2332 28.0002C10.379 28.0002 9.19242 26.3039 9 25.5587Z" fill="#3E3E3E"></path>
</g>

<g id="css">
<path d="M6 28L4 3H28L26 28L16 31L6 28Z" fill="#1172B8"></path> <path d="M26 5H16V29.5L24 27L26 5Z" fill="#33AADD"></path> <path d="M19.5 17.5H9.5L9 14L17 11.5H9L8.5 8.5H24L23.5 12L17 14.5H23L22 24L16 26L10 24L9.5 19H12.5L13 21.5L16 22.5L19 21.5L19.5 17.5Z" fill="white"></path> 
</g>

<g id="vscode">
<path d="M29.01,5.03,23.244,2.254a1.742,1.742,0,0,0-1.989.338L2.38,19.8A1.166,1.166,0,0,0,2.3,21.447c.025.027.05.053.077.077l1.541,1.4a1.165,1.165,0,0,0,1.489.066L28.142,5.75A1.158,1.158,0,0,1,30,6.672V6.605A1.748,1.748,0,0,0,29.01,5.03Z" style="fill:#0065a9"/>
<path d="M29.01,26.97l-5.766,2.777a1.745,1.745,0,0,1-1.989-.338L2.38,12.2A1.166,1.166,0,0,1,2.3,10.553c.025-.027.05-.053.077-.077l1.541-1.4A1.165,1.165,0,0,1,5.41,9.01L28.142,26.25A1.158,1.158,0,0,0,30,25.328V25.4A1.749,1.749,0,0,1,29.01,26.97Z" style="fill:#007acc"/>
<path d="M23.244,29.747a1.745,1.745,0,0,1-1.989-.338A1.025,1.025,0,0,0,23,28.684V3.316a1.024,1.024,0,0,0-1.749-.724,1.744,1.744,0,0,1,1.989-.339l5.765,2.772A1.748,1.748,0,0,1,30,6.6V25.4a1.748,1.748,0,0,1-.991,1.576Z" style="fill:#1f9cf0"/>
</g>

<g id="react">
<path d="M18.6789 15.9759C18.6789 14.5415 17.4796 13.3785 16 13.3785C14.5206 13.3785 13.3211 14.5415 13.3211 15.9759C13.3211 17.4105 14.5206 18.5734 16 18.5734C17.4796 18.5734 18.6789 17.4105 18.6789 15.9759Z" fill="#53C1DE"></path> <path fill-rule="evenodd" clip-rule="evenodd" d="M24.7004 11.1537C25.2661 8.92478 25.9772 4.79148 23.4704 3.39016C20.9753 1.99495 17.7284 4.66843 16.0139 6.27318C14.3044 4.68442 10.9663 2.02237 8.46163 3.42814C5.96751 4.82803 6.73664 8.8928 7.3149 11.1357C4.98831 11.7764 1 13.1564 1 15.9759C1 18.7874 4.98416 20.2888 7.29698 20.9289C6.71658 23.1842 5.98596 27.1909 8.48327 28.5877C10.9973 29.9932 14.325 27.3945 16.0554 25.7722C17.7809 27.3864 20.9966 30.0021 23.4922 28.6014C25.9956 27.1963 25.3436 23.1184 24.7653 20.8625C27.0073 20.221 31 18.7523 31 15.9759C31 13.1835 26.9903 11.7923 24.7004 11.1537ZM24.4162 19.667C24.0365 18.5016 23.524 17.2623 22.8971 15.9821C23.4955 14.7321 23.9881 13.5088 24.3572 12.3509C26.0359 12.8228 29.7185 13.9013 29.7185 15.9759C29.7185 18.07 26.1846 19.1587 24.4162 19.667ZM22.85 27.526C20.988 28.571 18.2221 26.0696 16.9478 24.8809C17.7932 23.9844 18.638 22.9422 19.4625 21.7849C20.9129 21.6602 22.283 21.4562 23.5256 21.1777C23.9326 22.7734 24.7202 26.4763 22.85 27.526ZM9.12362 27.5111C7.26143 26.47 8.11258 22.8946 8.53957 21.2333C9.76834 21.4969 11.1286 21.6865 12.5824 21.8008C13.4123 22.9332 14.2816 23.9741 15.1576 24.8857C14.0753 25.9008 10.9945 28.557 9.12362 27.5111ZM2.28149 15.9759C2.28149 13.874 5.94207 12.8033 7.65904 12.3326C8.03451 13.5165 8.52695 14.7544 9.12123 16.0062C8.51925 17.2766 8.01977 18.5341 7.64085 19.732C6.00369 19.2776 2.28149 18.0791 2.28149 15.9759ZM9.1037 4.50354C10.9735 3.45416 13.8747 6.00983 15.1159 7.16013C14.2444 8.06754 13.3831 9.1006 12.5603 10.2265C11.1494 10.3533 9.79875 10.5569 8.55709 10.8297C8.09125 9.02071 7.23592 5.55179 9.1037 4.50354ZM20.3793 11.5771C21.3365 11.6942 22.2536 11.85 23.1147 12.0406C22.8562 12.844 22.534 13.6841 22.1545 14.5453C21.6044 13.5333 21.0139 12.5416 20.3793 11.5771ZM16.0143 8.0481C16.6054 8.66897 17.1974 9.3623 17.7798 10.1145C16.5985 10.0603 15.4153 10.0601 14.234 10.1137C14.8169 9.36848 15.414 8.67618 16.0143 8.0481ZM9.8565 14.5444C9.48329 13.6862 9.16398 12.8424 8.90322 12.0275C9.75918 11.8418 10.672 11.69 11.623 11.5748C10.9866 12.5372 10.3971 13.5285 9.8565 14.5444ZM11.6503 20.4657C10.6679 20.3594 9.74126 20.2153 8.88556 20.0347C9.15044 19.2055 9.47678 18.3435 9.85796 17.4668C10.406 18.4933 11.0045 19.4942 11.6503 20.4657ZM16.0498 23.9915C15.4424 23.356 14.8365 22.6531 14.2448 21.8971C15.4328 21.9423 16.6231 21.9424 17.811 21.891C17.2268 22.6608 16.6369 23.3647 16.0498 23.9915ZM22.1667 17.4222C22.5677 18.3084 22.9057 19.1657 23.1742 19.9809C22.3043 20.1734 21.3652 20.3284 20.3757 20.4435C21.015 19.4607 21.6149 18.4536 22.1667 17.4222ZM18.7473 20.5941C16.9301 20.72 15.1016 20.7186 13.2838 20.6044C12.2509 19.1415 11.3314 17.603 10.5377 16.0058C11.3276 14.4119 12.2404 12.8764 13.2684 11.4158C15.0875 11.2825 16.9178 11.2821 18.7369 11.4166C19.7561 12.8771 20.6675 14.4086 21.4757 15.9881C20.6771 17.5812 19.7595 19.1198 18.7473 20.5941ZM22.8303 4.4666C24.7006 5.51254 23.8681 9.22726 23.4595 10.8426C22.2149 10.5641 20.8633 10.3569 19.4483 10.2281C18.6239 9.09004 17.7698 8.05518 16.9124 7.15949C18.1695 5.98441 20.9781 3.43089 22.8303 4.4666Z" fill="#53C1DE"></path>
</g>

<g id="html">
<path d="M6 28L4 3H28L26 28L16 31L6 28Z" fill="#E44D26"/>
<path d="M26 5H16V29.5L24 27L26 5Z" fill="#F16529"/>
<path d="M9.5 17.5L8.5 8H24L23.5 11H11.5L12 14.5H23L22 24L16 26L10 24L9.5 19H12.5L13 21.5L16 22.5L19 21.5L19.5 17.5H9.5Z" fill="white"/>
</g>

<g id="redux">
<path d="M21.7868 21.556C22.8939 21.4433 23.7338 20.505 23.6956 19.3789C23.6575 18.253 22.703 17.3522 21.5577 17.3522H21.4814C20.2978 17.3897 19.3817 18.3656 19.4199 19.5291C19.4581 20.0921 19.6871 20.58 20.0307 20.9178C18.7327 23.4326 16.7475 25.2717 13.7698 26.8106C11.7464 27.8615 9.6468 28.2369 7.54715 27.9742C5.82918 27.749 4.49301 26.9984 3.65301 25.7596C2.43144 23.9205 2.31695 21.9312 3.34773 19.942C4.07312 18.5157 5.21828 17.4647 5.94367 16.9392C5.79098 16.4513 5.56187 15.6256 5.44738 15.0251C-0.0882044 18.9661 0.484491 24.2959 2.16426 26.8106C3.42402 28.6873 5.98187 29.8509 8.80691 29.8509C9.57039 29.8509 10.3339 29.7757 11.0975 29.5882C15.9841 28.6498 19.6872 25.7972 21.7868 21.556ZM28.5059 16.9018C25.6045 13.5613 21.3287 11.7222 16.4421 11.7222H15.8314C15.4878 11.0466 14.7624 10.5961 13.9607 10.5961H13.8843C12.7009 10.6337 11.7848 11.6095 11.8229 12.7731C11.8611 13.8991 12.8154 14.7999 13.9607 14.7999H14.037C14.8769 14.7624 15.6023 14.2369 15.9077 13.5237H16.5948C19.4963 13.5237 22.2449 14.3494 24.7265 15.9634C26.6352 17.202 28.0096 18.816 28.7731 20.7677C29.4221 22.3441 29.3839 23.883 28.6967 25.1967C27.6278 27.1859 25.8336 28.2744 23.4666 28.2744C21.9395 28.2744 20.4889 27.824 19.7253 27.4862C19.3054 27.8615 18.5418 28.462 18.0073 28.8375C19.649 29.5881 21.3287 30.001 22.9321 30.001C26.597 30.001 29.3076 28.0116 30.3384 26.0224C31.4454 23.8454 31.369 20.0921 28.5059 16.9018ZM9.1123 22.1939C9.15051 23.3199 10.1049 24.2206 11.2502 24.2206H11.3266C12.51 24.1832 13.4262 23.2073 13.388 22.0438C13.3499 20.9177 12.3954 20.017 11.2502 20.017H11.1739C11.0975 20.017 10.9829 20.017 10.9067 20.0544C9.3414 17.5022 8.69242 14.7248 8.92152 11.7221C9.0741 9.47006 9.83769 7.51828 11.1739 5.9043C12.2809 4.51555 14.4188 3.83996 15.8696 3.80252C19.9162 3.7274 21.634 8.68179 21.7486 10.6711C22.2449 10.7837 23.0848 11.0465 23.6575 11.2342C23.1993 5.15382 19.3817 2.00098 15.7169 2.00098C12.2809 2.00098 9.1123 4.44067 7.85242 8.04387C6.09637 12.8481 7.24164 17.4647 9.37949 21.1055C9.18871 21.3682 9.0741 21.7811 9.1123 22.194V22.1939Z" fill="#764ABC"></path>
</g>

<g id="git">
<path d="M2.58536 17.4132C1.80488 16.6327 1.80488 15.3673 2.58536 14.5868L14.5868 2.58536C15.3673 1.80488 16.6327 1.80488 17.4132 2.58536L29.4146 14.5868C30.1951 15.3673 30.1951 16.6327 29.4146 17.4132L17.4132 29.4146C16.6327 30.1951 15.3673 30.1951 14.5868 29.4146L2.58536 17.4132Z" fill="#EE513B"/>
<path d="M12.1489 5.06152L10.9336 6.27686L14.0725 9.41577C13.9455 9.68819 13.8746 9.99201 13.8746 10.3124C13.8746 11.222 14.4461 11.9981 15.2496 12.3012V19.9798C14.4461 20.2829 13.8746 21.059 13.8746 21.9686C13.8746 23.1422 14.826 24.0936 15.9996 24.0936C17.1732 24.0936 18.1246 23.1422 18.1246 21.9686C18.1246 21.144 17.6549 20.429 16.9684 20.0768V12.3117L19.9689 15.3122C19.8481 15.5791 19.7809 15.8754 19.7809 16.1874C19.7809 17.361 20.7323 18.3124 21.9059 18.3124C23.0795 18.3124 24.0309 17.361 24.0309 16.1874C24.0309 15.0138 23.0795 14.0624 21.9059 14.0624C21.6778 14.0624 21.4582 14.0983 21.2522 14.1648L18.0297 10.9423C18.0914 10.7433 18.1246 10.5317 18.1246 10.3124C18.1246 9.13878 17.1732 8.18738 15.9996 8.18738C15.7803 8.18738 15.5688 8.22061 15.3697 8.2823L12.1489 5.06152Z" fill="white"/>
</g>

<g id="github">

  <circle cx="24" cy="24" r="20" fill="#181717"></circle> <path d="M6.81348 34.235C9.24811 38.3138 13.0939 41.4526 17.6772 42.9784C18.6779 43.1614 19.0425 42.5438 19.0425 42.0134C19.0425 41.7938 19.0388 41.4058 19.0339 40.8866C19.0282 40.2852 19.0208 39.5079 19.0155 38.6124C13.4524 39.8206 12.2787 35.931 12.2787 35.931C11.3689 33.6215 10.0576 33.0064 10.0576 33.0064C8.2417 31.7651 10.1951 31.7896 10.1951 31.7896C12.2025 31.9321 13.2584 33.8511 13.2584 33.8511C15.0424 36.9071 17.94 36.0243 19.0794 35.5135C19.2611 34.2207 19.7767 33.3391 20.3489 32.8394C15.908 32.3348 11.2387 30.6183 11.2387 22.9545C11.2387 20.7715 12.0184 18.9863 13.2977 17.5879C13.0914 17.082 12.4051 15.0488 13.4929 12.2949C13.4929 12.2949 15.1725 11.7571 18.9934 14.3453C20.5883 13.9021 22.2998 13.6798 24.0003 13.6725C25.6983 13.6798 27.4099 13.9021 29.0072 14.3453C32.8256 11.7571 34.5016 12.2949 34.5016 12.2949C35.5931 15.0488 34.9067 17.082 34.7005 17.5879C35.9823 18.9863 36.757 20.7715 36.757 22.9545C36.757 30.638 32.0804 32.3286 27.6247 32.8234C28.343 33.441 28.9827 34.6614 28.9827 36.5277C28.9827 38.3152 28.9717 39.8722 28.9644 40.9035C28.9608 41.4143 28.9581 41.7962 28.9581 42.0134C28.9581 42.5487 29.3178 43.1712 30.3332 42.976C33.9844 41.7572 37.1671 39.5154 39.5403 36.5903C35.8734 41.1108 30.274 44 23.9997 44C16.6943 44 10.3038 40.0832 6.81348 34.235Z" fill="white"></path>
</g>

<g id="falcon">
<g id="SVGRepo_bgCarrier" stroke-width="0"/>

<g id="SVGRepo_tracerCarrier" stroke-linecap="round" stroke-linejoin="round"/>

<g id="SVGRepo_iconCarrier">

<title>file_type_falcon</title>

<path d="M20.81,4.58c-1.24.78-3,2-5.37,3.51a60,60,0,0,0-5.83,4.18c-.81.84-1.45,3-2.94,4.82a23.7,23.7,0,0,1-3.2,3.29,9.75,9.75,0,0,0,3.2-1.23A12.56,12.56,0,0,0,10,16.35a17.63,17.63,0,0,1,1.35-1.86c1.18-1.12,5.31-2.8,7.83-3.6s3.1-.31,5.6-.78a9.72,9.72,0,0,0,3.37-1L30,3.4,20.81,6.79Z" style="fill:#018492"/>

<path d="M30,10.55l-3.51,6.12h-2.8L16,15.12v-1L19.57,12l2.62-.42ZM12.88,16.73l-.31,3.09-1.63.48-1.71-.57Z" style="fill:#015761"/>

<path d="M3.47,21a2.34,2.34,0,0,0-.28,1c0,.45-1.19.7-1.19,2.11a3.65,3.65,0,0,0,1.87,2.9L6.34,28.6A3.53,3.53,0,0,1,6,26.87a1.5,1.5,0,0,1,.79-1.35c.67-.53,6.77-1.59,8.59-1.33a5.92,5.92,0,0,1,3.37,1.87L27,20l-2.13-1.94H23.47l-1.94-.93H15.92l-2.36,4.93q-4.72-.23-5.67-.34C7.25,21.64,5.79,21.43,3.47,21Z" style="fill:#00292d"/>

</g>
<!-- <g id="SVGRepo_bgCarrier" stroke-width="0"/>
<g id="SVGRepo_tracerCarrier" stroke-linecap="round" stroke-linejoin="round"/>
<g id="SVGRepo_iconCarrier">
<title>file_type_falcon</title>
<path d="M20.81,4.58c-1.24.78-3,2-5.37,3.51a60,60,0,0,0-5.83,4.18c-.81.84-1.45,3-2.94,4.82a23.7,23.7,0,0,1-3.2,3.29,9.75,9.75,0,0,0,3.2-1.23A12.56,12.56,0,0,0,10,16.35a17.63,17.63,0,0,1,1.35-1.86c1.18-1.12,5.31-2.8,7.83-3.6s3.1-.31,5.6-.78a9.72,9.72,0,0,0,3.37-1L30,3.4,20.81,6.79Z" style="fill:#015761"/>
<path d="M30,10.55l-3.51,6.12h-2.8L16,15.12v-1L19.57,12l2.62-.42ZM12.88,16.73l-.31,3.09-1.63.48-1.71-.57Z" style="fill:#018492"/>
<path d="M3.47,21a2.34,2.34,0,0,0-.28,1c0,.45-1.19.7-1.19,2.11a3.65,3.65,0,0,0,1.87,2.9L6.34,28.6A3.53,3.53,0,0,1,6,26.87a1.5,1.5,0,0,1,.79-1.35c.67-.53,6.77-1.59,8.59-1.33a5.92,5.92,0,0,1,3.37,1.87L27,20l-2.13-1.94H23.47l-1.94-.93H15.92l-2.36,4.93q-4.72-.23-5.67-.34C7.25,21.64,5.79,21.43,3.47,21Z" style="fill:#01b2c6"/>

</g> -->

</g>

</svg>